<?xml version="1.0" encoding="UTF-8" standalone="no"?>
<!DOCTYPE svg PUBLIC "-//W3C//DTD SVG 1.1//EN" "http://www.w3.org/Graphics/SVG/1.1/DTD/svg11.dtd">
<svg width="3000" height="450" id="timelineCanvas">
<line x1="100" y1="350" x2="100" y2="450" stroke="black" stroke-width="10" opacity="1.0">
</line>
<line x1="200" y1="350" x2="200" y2="450" stroke="black" stroke-width="10" opacity="1.0">
</line>
<line x1="300" y1="350" x2="300" y2="450" stroke="black" stroke-width="10" opacity="1.0">
</line>
<line x1="400" y1="350" x2="400" y2="450" stroke="black" stroke-width="10" opacity="1.0">
</line>
<line x1="500" y1="350" x2="500" y2="450" stroke="black" stroke-width="10" opacity="1.0">
</line>
<line x1="600" y1="350" x2="600" y2="450" stroke="black" stroke-width="10" opacity="1.0">
</line>
<line x1="700" y1="350" x2="700" y2="450" stroke="black" stroke-width="10" opacity="1.0">
</line>
<line x1="800" y1="350" x2="800" y2="450" stroke="black" stroke-width="10" opacity="1.0">
</line>
<line x1="900" y1="350" x2="900" y2="450" stroke="black" stroke-width="10" opacity="1.0">
</line>
<line x1="1000" y1="350" x2="1000" y2="450" stroke="black" stroke-width="10" opacity="1.0">
</line>
<line x1="1100" y1="350" x2="1100" y2="450" stroke="black" stroke-width="10" opacity="1.0">
</line>
<line x1="1200" y1="350" x2="1200" y2="450" stroke="black" stroke-width="10" opacity="1.0">
</line>
<line x1="1300" y1="350" x2="1300" y2="450" stroke="black" stroke-width="10" opacity="1.0">
</line>
<line x1="1400" y1="350" x2="1400" y2="450" stroke="black" stroke-width="10" opacity="1.0">
</line>
<line x1="1500" y1="350" x2="1500" y2="450" stroke="black" stroke-width="10" opacity="1.0">
</line>
<line x1="1600" y1="350" x2="1600" y2="450" stroke="black" stroke-width="10" opacity="1.0">
</line>
<line x1="1700" y1="350" x2="1700" y2="450" stroke="black" stroke-width="10" opacity="1.0">
</line>
<line x1="1800" y1="350" x2="1800" y2="450" stroke="black" stroke-width="10" opacity="1.0">
</line>
<line x1="1900" y1="350" x2="1900" y2="450" stroke="black" stroke-width="10" opacity="1.0">
</line>
<line x1="11000" y1="350" x2="11000" y2="450" stroke="black" stroke-width="10" opacity="1.0">
</line>
<line x1="11100" y1="350" x2="11100" y2="450" stroke="black" stroke-width="10" opacity="1.0">
</line>
<line x1="11200" y1="350" x2="11200" y2="450" stroke="black" stroke-width="10" opacity="1.0">
</line>
<line x1="11300" y1="350" x2="11300" y2="450" stroke="black" stroke-width="10" opacity="1.0">
</line>
<line x1="11400" y1="350" x2="11400" y2="450" stroke="black" stroke-width="10" opacity="1.0">
</line>
<line x1="11500" y1="350" x2="11500" y2="450" stroke="black" stroke-width="10" opacity="1.0">
</line>
<line x1="11600" y1="350" x2="11600" y2="450" stroke="black" stroke-width="10" opacity="1.0">
</line>
<line x1="11700" y1="350" x2="11700" y2="450" stroke="black" stroke-width="10" opacity="1.0">
</line>
<line x1="11800" y1="350" x2="11800" y2="450" stroke="black" stroke-width="10" opacity="1.0">
</line>
<line x1="11900" y1="350" x2="11900" y2="450" stroke="black" stroke-width="10" opacity="1.0">
</line>
<line x1="12000" y1="350" x2="12000" y2="450" stroke="black" stroke-width="10" opacity="1.0">
</line>
<line x1="12100" y1="350" x2="12100" y2="450" stroke="black" stroke-width="10" opacity="1.0">
</line>
<line x1="12200" y1="350" x2="12200" y2="450" stroke="black" stroke-width="10" opacity="1.0">
</line>
<line x1="12300" y1="350" x2="12300" y2="450" stroke="black" stroke-width="10" opacity="1.0">
</line>
<line x1="12400" y1="350" x2="12400" y2="450" stroke="black" stroke-width="10" opacity="1.0">
</line>
<line x1="12500" y1="350" x2="12500" y2="450" stroke="black" stroke-width="10" opacity="1.0">
</line>
<line x1="12600" y1="350" x2="12600" y2="450" stroke="black" stroke-width="10" opacity="1.0">
</line>
<line x1="12700" y1="350" x2="12700" y2="450" stroke="black" stroke-width="10" opacity="1.0">
</line>
<line x1="12800" y1="350" x2="12800" y2="450" stroke="black" stroke-width="10" opacity="1.0">
</line>
<line x1="12900" y1="350" x2="12900" y2="450" stroke="black" stroke-width="10" opacity="1.0">
</line>
<line x1="13000" y1="350" x2="13000" y2="450" stroke="black" stroke-width="10" opacity="1.0">
</line>
<line x1="13100" y1="350" x2="13100" y2="450" stroke="black" stroke-width="10" opacity="1.0">
</line>
<line x1="13200" y1="350" x2="13200" y2="450" stroke="black" stroke-width="10" opacity="1.0">
</line>
<line x1="13300" y1="350" x2="13300" y2="450" stroke="black" stroke-width="10" opacity="1.0">
</line>
<line x1="13400" y1="350" x2="13400" y2="450" stroke="black" stroke-width="10" opacity="1.0">
</line>
<line x1="13500" y1="350" x2="13500" y2="450" stroke="black" stroke-width="10" opacity="1.0">
</line>
<line x1="13600" y1="350" x2="13600" y2="450" stroke="black" stroke-width="10" opacity="1.0">
</line>
<line x1="13700" y1="350" x2="13700" y2="450" stroke="black" stroke-width="10" opacity="1.0">
</line>
<line x1="13800" y1="350" x2="13800" y2="450" stroke="black" stroke-width="10" opacity="1.0">
</line>
<line x1="13900" y1="350" x2="13900" y2="450" stroke="black" stroke-width="10" opacity="1.0">
</line>
<line x1="14000" y1="350" x2="14000" y2="450" stroke="black" stroke-width="10" opacity="1.0">
</line>
<line x1="14100" y1="350" x2="14100" y2="450" stroke="black" stroke-width="10" opacity="1.0">
</line>
<line x1="14200" y1="350" x2="14200" y2="450" stroke="black" stroke-width="10" opacity="1.0">
</line>
<line x1="14300" y1="350" x2="14300" y2="450" stroke="black" stroke-width="10" opacity="1.0">
</line>
<line x1="14400" y1="350" x2="14400" y2="450" stroke="black" stroke-width="10" opacity="1.0">
</line>
<line x1="14500" y1="350" x2="14500" y2="450" stroke="black" stroke-width="10" opacity="1.0">
</line>
<line x1="14600" y1="350" x2="14600" y2="450" stroke="black" stroke-width="10" opacity="1.0">
</line>
<line x1="14700" y1="350" x2="14700" y2="450" stroke="black" stroke-width="10" opacity="1.0">
</line>
<line x1="14800" y1="350" x2="14800" y2="450" stroke="black" stroke-width="10" opacity="1.0">
</line>
<line x1="14900" y1="350" x2="14900" y2="450" stroke="black" stroke-width="10" opacity="1.0">
</line>
<line x1="15000" y1="350" x2="15000" y2="450" stroke="black" stroke-width="10" opacity="1.0">
</line>
<line x1="15100" y1="350" x2="15100" y2="450" stroke="black" stroke-width="10" opacity="1.0">
</line>
<line x1="15200" y1="350" x2="15200" y2="450" stroke="black" stroke-width="10" opacity="1.0">
</line>
<line x1="15300" y1="350" x2="15300" y2="450" stroke="black" stroke-width="10" opacity="1.0">
</line>
<line x1="15400" y1="350" x2="15400" y2="450" stroke="black" stroke-width="10" opacity="1.0">
</line>
<line x1="15500" y1="350" x2="15500" y2="450" stroke="black" stroke-width="10" opacity="1.0">
</line>
<line x1="15600" y1="350" x2="15600" y2="450" stroke="black" stroke-width="10" opacity="1.0">
</line>
<line x1="15700" y1="350" x2="15700" y2="450" stroke="black" stroke-width="10" opacity="1.0">
</line>
<line x1="15800" y1="350" x2="15800" y2="450" stroke="black" stroke-width="10" opacity="1.0">
</line>
<line x1="15900" y1="350" x2="15900" y2="450" stroke="black" stroke-width="10" opacity="1.0">
</line>
<line x1="16000" y1="350" x2="16000" y2="450" stroke="black" stroke-width="10" opacity="1.0">
</line>
<line x1="16100" y1="350" x2="16100" y2="450" stroke="black" stroke-width="10" opacity="1.0">
</line>
<line x1="16200" y1="350" x2="16200" y2="450" stroke="black" stroke-width="10" opacity="1.0">
</line>
<line x1="16300" y1="350" x2="16300" y2="450" stroke="black" stroke-width="10" opacity="1.0">
</line>
<line x1="16400" y1="350" x2="16400" y2="450" stroke="black" stroke-width="10" opacity="1.0">
</line>
<line x1="16500" y1="350" x2="16500" y2="450" stroke="black" stroke-width="10" opacity="1.0">
</line>
<line x1="16600" y1="350" x2="16600" y2="450" stroke="black" stroke-width="10" opacity="1.0">
</line>
<line x1="16700" y1="350" x2="16700" y2="450" stroke="black" stroke-width="10" opacity="1.0">
</line>
<line x1="16800" y1="350" x2="16800" y2="450" stroke="black" stroke-width="10" opacity="1.0">
</line>
<line x1="16900" y1="350" x2="16900" y2="450" stroke="black" stroke-width="10" opacity="1.0">
</line>
<line x1="17000" y1="350" x2="17000" y2="450" stroke="black" stroke-width="10" opacity="1.0">
</line>
<line x1="17100" y1="350" x2="17100" y2="450" stroke="black" stroke-width="10" opacity="1.0">
</line>
<line x1="17200" y1="350" x2="17200" y2="450" stroke="black" stroke-width="10" opacity="1.0">
</line>
<line x1="17300" y1="350" x2="17300" y2="450" stroke="black" stroke-width="10" opacity="1.0">
</line>
<line x1="17400" y1="350" x2="17400" y2="450" stroke="black" stroke-width="10" opacity="1.0">
</line>
<line x1="17500" y1="350" x2="17500" y2="450" stroke="black" stroke-width="10" opacity="1.0">
</line>
<line x1="17600" y1="350" x2="17600" y2="450" stroke="black" stroke-width="10" opacity="1.0">
</line>
<line x1="17700" y1="350" x2="17700" y2="450" stroke="black" stroke-width="10" opacity="1.0">
</line>
<line x1="17800" y1="350" x2="17800" y2="450" stroke="black" stroke-width="10" opacity="1.0">
</line>
<line x1="17900" y1="350" x2="17900" y2="450" stroke="black" stroke-width="10" opacity="1.0">
</line>
<line x1="18000" y1="350" x2="18000" y2="450" stroke="black" stroke-width="10" opacity="1.0">
</line>
<line x1="18100" y1="350" x2="18100" y2="450" stroke="black" stroke-width="10" opacity="1.0">
</line>
<line x1="18200" y1="350" x2="18200" y2="450" stroke="black" stroke-width="10" opacity="1.0">
</line>
<line x1="18300" y1="350" x2="18300" y2="450" stroke="black" stroke-width="10" opacity="1.0">
</line>
<line x1="18400" y1="350" x2="18400" y2="450" stroke="black" stroke-width="10" opacity="1.0">
</line>
<line x1="18500" y1="350" x2="18500" y2="450" stroke="black" stroke-width="10" opacity="1.0">
</line>
<line x1="18600" y1="350" x2="18600" y2="450" stroke="black" stroke-width="10" opacity="1.0">
</line>
<line x1="18700" y1="350" x2="18700" y2="450" stroke="black" stroke-width="10" opacity="1.0">
</line>
<line x1="18800" y1="350" x2="18800" y2="450" stroke="black" stroke-width="10" opacity="1.0">
</line>
<line x1="18900" y1="350" x2="18900" y2="450" stroke="black" stroke-width="10" opacity="1.0">
</line>
<line x1="19000" y1="350" x2="19000" y2="450" stroke="black" stroke-width="10" opacity="1.0">
</line>
<line x1="19100" y1="350" x2="19100" y2="450" stroke="black" stroke-width="10" opacity="1.0">
</line>
<line x1="19200" y1="350" x2="19200" y2="450" stroke="black" stroke-width="10" opacity="1.0">
</line>
<line x1="19300" y1="350" x2="19300" y2="450" stroke="black" stroke-width="10" opacity="1.0">
</line>
<line x1="19400" y1="350" x2="19400" y2="450" stroke="black" stroke-width="10" opacity="1.0">
</line>
<line x1="19500" y1="350" x2="19500" y2="450" stroke="black" stroke-width="10" opacity="1.0">
</line>
<line x1="19600" y1="350" x2="19600" y2="450" stroke="black" stroke-width="10" opacity="1.0">
</line>
<line x1="19700" y1="350" x2="19700" y2="450" stroke="black" stroke-width="10" opacity="1.0">
</line>
<line x1="19800" y1="350" x2="19800" y2="450" stroke="black" stroke-width="10" opacity="1.0">
</line>
<line x1="19900" y1="350" x2="19900" y2="450" stroke="black" stroke-width="10" opacity="1.0">
</line>
<line x1="2000" y1="350" x2="2000" y2="450" stroke="black" stroke-width="10" opacity="1.0">
</line>
<line x1="2100" y1="350" x2="2100" y2="450" stroke="black" stroke-width="10" opacity="1.0">
</line>
<line x1="2200" y1="350" x2="2200" y2="450" stroke="black" stroke-width="10" opacity="1.0">
</line>
<line x1="2300" y1="350" x2="2300" y2="450" stroke="black" stroke-width="10" opacity="1.0">
</line>
<line x1="2400" y1="350" x2="2400" y2="450" stroke="black" stroke-width="10" opacity="1.0">
</line>
<line x1="2500" y1="350" x2="2500" y2="450" stroke="black" stroke-width="10" opacity="1.0">
</line>
<line x1="2600" y1="350" x2="2600" y2="450" stroke="black" stroke-width="10" opacity="1.0">
</line>
<line x1="2700" y1="350" x2="2700" y2="450" stroke="black" stroke-width="10" opacity="1.0">
</line>
<line x1="2800" y1="350" x2="2800" y2="450" stroke="black" stroke-width="10" opacity="1.0">
</line>
<line x1="2900" y1="350" x2="2900" y2="450" stroke="black" stroke-width="10" opacity="1.0">
</line>
<line x1="21000" y1="350" x2="21000" y2="450" stroke="black" stroke-width="10" opacity="1.0">
</line>
<line x1="21100" y1="350" x2="21100" y2="450" stroke="black" stroke-width="10" opacity="1.0">
</line>
<line x1="21200" y1="350" x2="21200" y2="450" stroke="black" stroke-width="10" opacity="1.0">
</line>
<line x1="21300" y1="350" x2="21300" y2="450" stroke="black" stroke-width="10" opacity="1.0">
</line>
<line x1="21400" y1="350" x2="21400" y2="450" stroke="black" stroke-width="10" opacity="1.0">
</line>
<line x1="21500" y1="350" x2="21500" y2="450" stroke="black" stroke-width="10" opacity="1.0">
</line>
<line x1="21600" y1="350" x2="21600" y2="450" stroke="black" stroke-width="10" opacity="1.0">
</line>
<line x1="21700" y1="350" x2="21700" y2="450" stroke="black" stroke-width="10" opacity="1.0">
</line>
<line x1="21800" y1="350" x2="21800" y2="450" stroke="black" stroke-width="10" opacity="1.0">
</line>
<line x1="21900" y1="350" x2="21900" y2="450" stroke="black" stroke-width="10" opacity="1.0">
</line>
<line x1="22000" y1="350" x2="22000" y2="450" stroke="black" stroke-width="10" opacity="1.0">
</line>
<line x1="22100" y1="350" x2="22100" y2="450" stroke="black" stroke-width="10" opacity="1.0">
</line>
<line x1="22200" y1="350" x2="22200" y2="450" stroke="black" stroke-width="10" opacity="1.0">
</line>
<line x1="22300" y1="350" x2="22300" y2="450" stroke="black" stroke-width="10" opacity="1.0">
</line>
<line x1="22400" y1="350" x2="22400" y2="450" stroke="black" stroke-width="10" opacity="1.0">
</line>
<line x1="22500" y1="350" x2="22500" y2="450" stroke="black" stroke-width="10" opacity="1.0">
</line>
<line x1="22600" y1="350" x2="22600" y2="450" stroke="black" stroke-width="10" opacity="1.0">
</line>
<line x1="22700" y1="350" x2="22700" y2="450" stroke="black" stroke-width="10" opacity="1.0">
</line>
<line x1="22800" y1="350" x2="22800" y2="450" stroke="black" stroke-width="10" opacity="1.0">
</line>
<line x1="22900" y1="350" x2="22900" y2="450" stroke="black" stroke-width="10" opacity="1.0">
</line>
<line x1="23000" y1="350" x2="23000" y2="450" stroke="black" stroke-width="10" opacity="1.0">
</line>
<line x1="23100" y1="350" x2="23100" y2="450" stroke="black" stroke-width="10" opacity="1.0">
</line>
<line x1="23200" y1="350" x2="23200" y2="450" stroke="black" stroke-width="10" opacity="1.0">
</line>
<line x1="23300" y1="350" x2="23300" y2="450" stroke="black" stroke-width="10" opacity="1.0">
</line>
<line x1="23400" y1="350" x2="23400" y2="450" stroke="black" stroke-width="10" opacity="1.0">
</line>
<line x1="23500" y1="350" x2="23500" y2="450" stroke="black" stroke-width="10" opacity="1.0">
</line>
<line x1="23600" y1="350" x2="23600" y2="450" stroke="black" stroke-width="10" opacity="1.0">
</line>
<line x1="23700" y1="350" x2="23700" y2="450" stroke="black" stroke-width="10" opacity="1.0">
</line>
<line x1="23800" y1="350" x2="23800" y2="450" stroke="black" stroke-width="10" opacity="1.0">
</line>
<line x1="23900" y1="350" x2="23900" y2="450" stroke="black" stroke-width="10" opacity="1.0">
</line>
<line x1="24000" y1="350" x2="24000" y2="450" stroke="black" stroke-width="10" opacity="1.0">
</line>
<line x1="24100" y1="350" x2="24100" y2="450" stroke="black" stroke-width="10" opacity="1.0">
</line>
<line x1="24200" y1="350" x2="24200" y2="450" stroke="black" stroke-width="10" opacity="1.0">
</line>
<line x1="24300" y1="350" x2="24300" y2="450" stroke="black" stroke-width="10" opacity="1.0">
</line>
<line x1="24400" y1="350" x2="24400" y2="450" stroke="black" stroke-width="10" opacity="1.0">
</line>
<line x1="24500" y1="350" x2="24500" y2="450" stroke="black" stroke-width="10" opacity="1.0">
</line>
<line x1="24600" y1="350" x2="24600" y2="450" stroke="black" stroke-width="10" opacity="1.0">
</line>
<line x1="24700" y1="350" x2="24700" y2="450" stroke="black" stroke-width="10" opacity="1.0">
</line>
<line x1="24800" y1="350" x2="24800" y2="450" stroke="black" stroke-width="10" opacity="1.0">
</line>
<line x1="24900" y1="350" x2="24900" y2="450" stroke="black" stroke-width="10" opacity="1.0">
</line>
<line x1="25000" y1="350" x2="25000" y2="450" stroke="black" stroke-width="10" opacity="1.0">
</line>
<line x1="25100" y1="350" x2="25100" y2="450" stroke="black" stroke-width="10" opacity="1.0">
</line>
<line x1="25200" y1="350" x2="25200" y2="450" stroke="black" stroke-width="10" opacity="1.0">
</line>
<line x1="25300" y1="350" x2="25300" y2="450" stroke="black" stroke-width="10" opacity="1.0">
</line>
<line x1="25400" y1="350" x2="25400" y2="450" stroke="black" stroke-width="10" opacity="1.0">
</line>
<line x1="25500" y1="350" x2="25500" y2="450" stroke="black" stroke-width="10" opacity="1.0">
</line>
<line x1="25600" y1="350" x2="25600" y2="450" stroke="black" stroke-width="10" opacity="1.0">
</line>
<line x1="25700" y1="350" x2="25700" y2="450" stroke="black" stroke-width="10" opacity="1.0">
</line>
<line x1="25800" y1="350" x2="25800" y2="450" stroke="black" stroke-width="10" opacity="1.0">
</line>
<line x1="25900" y1="350" x2="25900" y2="450" stroke="black" stroke-width="10" opacity="1.0">
</line>
<line x1="26000" y1="350" x2="26000" y2="450" stroke="black" stroke-width="10" opacity="1.0">
</line>
<line x1="26100" y1="350" x2="26100" y2="450" stroke="black" stroke-width="10" opacity="1.0">
</line>
<line x1="26200" y1="350" x2="26200" y2="450" stroke="black" stroke-width="10" opacity="1.0">
</line>
<line x1="26300" y1="350" x2="26300" y2="450" stroke="black" stroke-width="10" opacity="1.0">
</line>
<line x1="26400" y1="350" x2="26400" y2="450" stroke="black" stroke-width="10" opacity="1.0">
</line>
<line x1="26500" y1="350" x2="26500" y2="450" stroke="black" stroke-width="10" opacity="1.0">
</line>
<line x1="26600" y1="350" x2="26600" y2="450" stroke="black" stroke-width="10" opacity="1.0">
</line>
<line x1="26700" y1="350" x2="26700" y2="450" stroke="black" stroke-width="10" opacity="1.0">
</line>
<line x1="26800" y1="350" x2="26800" y2="450" stroke="black" stroke-width="10" opacity="1.0">
</line>
<line x1="26900" y1="350" x2="26900" y2="450" stroke="black" stroke-width="10" opacity="1.0">
</line>
<line x1="27000" y1="350" x2="27000" y2="450" stroke="black" stroke-width="10" opacity="1.0">
</line>
<line x1="27100" y1="350" x2="27100" y2="450" stroke="black" stroke-width="10" opacity="1.0">
</line>
<line x1="27200" y1="350" x2="27200" y2="450" stroke="black" stroke-width="10" opacity="1.0">
</line>
<line x1="27300" y1="350" x2="27300" y2="450" stroke="black" stroke-width="10" opacity="1.0">
</line>
<line x1="27400" y1="350" x2="27400" y2="450" stroke="black" stroke-width="10" opacity="1.0">
</line>
<line x1="27500" y1="350" x2="27500" y2="450" stroke="black" stroke-width="10" opacity="1.0">
</line>
<line x1="27600" y1="350" x2="27600" y2="450" stroke="black" stroke-width="10" opacity="1.0">
</line>
<line x1="27700" y1="350" x2="27700" y2="450" stroke="black" stroke-width="10" opacity="1.0">
</line>
<line x1="27800" y1="350" x2="27800" y2="450" stroke="black" stroke-width="10" opacity="1.0">
</line>
<line x1="27900" y1="350" x2="27900" y2="450" stroke="black" stroke-width="10" opacity="1.0">
</line>
<line x1="28000" y1="350" x2="28000" y2="450" stroke="black" stroke-width="10" opacity="1.0">
</line>
<line x1="28100" y1="350" x2="28100" y2="450" stroke="black" stroke-width="10" opacity="1.0">
</line>
<line x1="28200" y1="350" x2="28200" y2="450" stroke="black" stroke-width="10" opacity="1.0">
</line>
<line x1="28300" y1="350" x2="28300" y2="450" stroke="black" stroke-width="10" opacity="1.0">
</line>
<line x1="28400" y1="350" x2="28400" y2="450" stroke="black" stroke-width="10" opacity="1.0">
</line>
<line x1="28500" y1="350" x2="28500" y2="450" stroke="black" stroke-width="10" opacity="1.0">
</line>
<line x1="28600" y1="350" x2="28600" y2="450" stroke="black" stroke-width="10" opacity="1.0">
</line>
<line x1="28700" y1="350" x2="28700" y2="450" stroke="black" stroke-width="10" opacity="1.0">
</line>
<line x1="28800" y1="350" x2="28800" y2="450" stroke="black" stroke-width="10" opacity="1.0">
</line>
<line x1="28900" y1="350" x2="28900" y2="450" stroke="black" stroke-width="10" opacity="1.0">
</line>
<line x1="29000" y1="350" x2="29000" y2="450" stroke="black" stroke-width="10" opacity="1.0">
</line>
<line x1="29100" y1="350" x2="29100" y2="450" stroke="black" stroke-width="10" opacity="1.0">
</line>
<line x1="29200" y1="350" x2="29200" y2="450" stroke="black" stroke-width="10" opacity="1.0">
</line>
<line x1="29300" y1="350" x2="29300" y2="450" stroke="black" stroke-width="10" opacity="1.0">
</line>
<line x1="29400" y1="350" x2="29400" y2="450" stroke="black" stroke-width="10" opacity="1.0">
</line>
<line x1="29500" y1="350" x2="29500" y2="450" stroke="black" stroke-width="10" opacity="1.0">
</line>
<line x1="29600" y1="350" x2="29600" y2="450" stroke="black" stroke-width="10" opacity="1.0">
</line>
<line x1="29700" y1="350" x2="29700" y2="450" stroke="black" stroke-width="10" opacity="1.0">
</line>
<line x1="29800" y1="350" x2="29800" y2="450" stroke="black" stroke-width="10" opacity="1.0">
</line>
<line x1="29900" y1="350" x2="29900" y2="450" stroke="black" stroke-width="10" opacity="1.0">
</line>
<line x1="210000" y1="350" x2="210000" y2="450" stroke="black" stroke-width="10" opacity="1.0">
</line>
<line x1="0"
      y1="400"
      x2="3000"
      y2="400"
      stroke="brown"
      stroke-width="40"
      opacity="1.0">
</line>
</svg>